<mxfile host="app.diagrams.net" modified="2024-03-17T01:31:00.624Z" agent="Mozilla/5.0 (Windows NT 10.0; Win64; x64; rv:123.0) Gecko/20100101 Firefox/123.0" etag="riTekZkK0zSqQ34OaWEm" version="21.3.5" type="github">
  <diagram name="Page-1" id="f1b7ffb7-ca1e-a977-7cf5-a751b3c06c05">
    <mxGraphModel dx="1434" dy="754" grid="1" gridSize="10" guides="1" tooltips="1" connect="1" arrows="1" fold="1" page="1" pageScale="1" pageWidth="826" pageHeight="1169" background="#ffffff" math="0" shadow="0">
      <root>
        <mxCell id="0" />
        <mxCell id="1" parent="0" />
        <mxCell id="2" value="Blog Name" style="text;spacingTop=-5;fontSize=18;fontStyle=0" parent="1" vertex="1">
          <mxGeometry x="70" y="30" width="230" height="20" as="geometry" />
        </mxCell>
        <mxCell id="3" value="" style="line;strokeWidth=1" parent="1" vertex="1">
          <mxGeometry x="20" y="60" width="780" height="10" as="geometry" />
        </mxCell>
        <mxCell id="4" value="" style="line;strokeWidth=1" parent="1" vertex="1">
          <mxGeometry x="20" y="90" width="780" height="10" as="geometry" />
        </mxCell>
        <mxCell id="5" value="Home" style="text;spacingTop=-5;" parent="1" vertex="1">
          <mxGeometry x="20" y="70.00000000000009" width="30" height="20" as="geometry" />
        </mxCell>
        <mxCell id="6" value="About" style="text;spacingTop=-5;" parent="1" vertex="1">
          <mxGeometry x="59.999999999999936" y="70.00000000000016" width="30" height="20" as="geometry" />
        </mxCell>
        <mxCell id="7" value="Associated blogs" style="text;spacingTop=-5;" parent="1" vertex="1">
          <mxGeometry x="459.9999999999999" y="70" width="30" height="20" as="geometry" />
        </mxCell>
        <mxCell id="8" value="Article 1" style="text;spacingTop=-5;" parent="1" vertex="1">
          <mxGeometry x="20" y="120" width="30" height="20" as="geometry" />
        </mxCell>
        <mxCell id="10" value="Latest Posts" style="text;spacingTop=-5;" parent="1" vertex="1">
          <mxGeometry x="610" y="120" width="30" height="20" as="geometry" />
        </mxCell>
        <mxCell id="11" value="RSS" style="text;spacingTop=-5;" parent="1" vertex="1">
          <mxGeometry x="740" y="70.00000000000013" width="30" height="20" as="geometry" />
        </mxCell>
        <mxCell id="12" value="Lorem ipsum dolor sit amet, consectetur adipisicing elit, sed do eiusmod tempor incididunt ut labore et dolore magna aliqua. Ut enim ad minim veniam, quis nostrud exercitation ullamco laboris nisi ut aliquip ex ea commodo consequat. Duis aute irure dolor in reprehenderit in voluptate velit esse ..." style="text;spacingTop=-5;whiteSpace=wrap;align=left" parent="1" vertex="1">
          <mxGeometry x="610" y="150" width="190" height="140" as="geometry" />
        </mxCell>
        <mxCell id="15" value="More" style="text;spacingTop=-5;fontStyle=4" parent="1" vertex="1">
          <mxGeometry x="760" y="290" width="30" height="20" as="geometry" />
        </mxCell>
        <mxCell id="16" value="Yesterday" style="text;spacingTop=-5;fontStyle=0;align=right" parent="1" vertex="1">
          <mxGeometry x="760" y="310" width="30" height="20" as="geometry" />
        </mxCell>
        <mxCell id="17" value="Lorem ipsum dolor sit amet, consectetur adipisicing elit, sed do eiusmod tempor incididunt ut labore et dolore magna aliqua. Ut enim ad minim veniam, quis nostrud exercitation ullamco laboris nisi ut aliquip ex ea commodo consequat. Duis aute irure dolor in reprehenderit in voluptate velit esse ..." style="text;spacingTop=-5;whiteSpace=wrap;align=left" parent="1" vertex="1">
          <mxGeometry x="605" y="330" width="190" height="140" as="geometry" />
        </mxCell>
        <mxCell id="18" value="More" style="text;spacingTop=-5;fontStyle=4" parent="1" vertex="1">
          <mxGeometry x="755" y="470" width="30" height="20" as="geometry" />
        </mxCell>
        <mxCell id="19" value="1 week ago" style="text;spacingTop=-5;fontStyle=0;align=right" parent="1" vertex="1">
          <mxGeometry x="755" y="490" width="30" height="20" as="geometry" />
        </mxCell>
        <mxCell id="22" value="Blog&#39;s Main Topic 1" style="text;spacingTop=-5;" parent="1" vertex="1">
          <mxGeometry x="99.99999999999997" y="70.00000000000026" width="30" height="20" as="geometry" />
        </mxCell>
        <mxCell id="23" value="Blog&#39;s Main Topic 2" style="text;spacingTop=-5;" parent="1" vertex="1">
          <mxGeometry x="219.99999999999997" y="70.00000000000003" width="30" height="20" as="geometry" />
        </mxCell>
        <mxCell id="24" value="Blog&#39;s Main Topic 3" style="text;spacingTop=-5;" parent="1" vertex="1">
          <mxGeometry x="340" y="70.00000000000013" width="30" height="20" as="geometry" />
        </mxCell>
        <mxCell id="28" value="Article 2" style="text;spacingTop=-5;" parent="1" vertex="1">
          <mxGeometry x="20" y="620" width="30" height="20" as="geometry" />
        </mxCell>
        <mxCell id="33" value="Article 3" style="text;spacingTop=-5;" parent="1" vertex="1">
          <mxGeometry x="20" y="1120" width="30" height="20" as="geometry" />
        </mxCell>
        <mxCell id="38" value="Rate this article" style="text;spacingTop=-5;" parent="1" vertex="1">
          <mxGeometry x="410.0000000000001" y="580.0000000000001" width="30" height="20" as="geometry" />
        </mxCell>
        <mxCell id="47" value="Tags: Tag1 Tag2 Tag3 Tag4" style="text;spacingTop=-5;" parent="1" vertex="1">
          <mxGeometry x="20" y="580.0000000000002" width="210" height="20" as="geometry" />
        </mxCell>
        <mxCell id="48" value="Tags: Tag1 Tag2 Tag3 Tag4" style="text;spacingTop=-5;" parent="1" vertex="1">
          <mxGeometry x="20" y="1080" width="210" height="20" as="geometry" />
        </mxCell>
        <mxCell id="49" value="Tags: Tag1 Tag2 Tag3 Tag4" style="text;spacingTop=-5;" parent="1" vertex="1">
          <mxGeometry x="20" y="1579.9999999999998" width="210" height="20" as="geometry" />
        </mxCell>
        <mxCell id="51" value="Me on Twitter" style="text;spacingTop=-5;" parent="1" vertex="1">
          <mxGeometry x="610" y="570" width="30" height="20" as="geometry" />
        </mxCell>
        <mxCell id="54" value="Yesterday" style="text;spacingTop=-5;fontStyle=0;align=right" parent="1" vertex="1">
          <mxGeometry x="760" y="640" width="30" height="20" as="geometry" />
        </mxCell>
        <mxCell id="60" value="Lorem ipsum dolor sit amet, consectetur adipisicing elit" style="text;spacingTop=-5;whiteSpace=wrap;align=left" parent="1" vertex="1">
          <mxGeometry x="610" y="670" width="190" height="40" as="geometry" />
        </mxCell>
        <mxCell id="61" value="1 Week ago" style="text;spacingTop=-5;fontStyle=0;align=right" parent="1" vertex="1">
          <mxGeometry x="760" y="710" width="30" height="20" as="geometry" />
        </mxCell>
      </root>
    </mxGraphModel>
  </diagram>
</mxfile>
